<?xml version="1.0" encoding="UTF-8"?>
<svg version="1.1" xmlns="http://www.w3.org/2000/svg" width="512" height="512">
<path d="M0 0 C1.01790619 0.00215515 2.03581238 0.0043103 3.08456421 0.00653076 C17.68630115 0.05617652 32.03615577 0.28124153 46.375 3.3125 C47.37112305 3.52181152 48.36724609 3.73112305 49.39355469 3.94677734 C63.5943787 7.01587559 77.5230768 10.94798342 91.375 15.3125 C92.01566406 14.62542969 92.65632813 13.93835937 93.31640625 13.23046875 C100.8711418 5.36048343 105.3074745 2.0662959 116.3359375 1.81640625 C126.10455186 3.41102582 132.13194568 9.34125846 138.88012695 16.15478516 C139.898564 17.16479494 140.91804916 18.17374878 141.93849182 19.18173218 C144.68962225 21.9059444 147.42479627 24.64565492 150.15644479 27.3893857 C152.44526076 29.68536291 154.74189053 31.97344319 157.03854245 34.26157796 C162.45957619 39.66270025 167.86780243 45.07640891 173.26782227 50.49853516 C178.82436082 56.07743468 184.40059104 61.6360627 189.98718673 67.18485034 C194.79754259 71.96390041 199.59606737 76.75460275 204.3852517 81.55486906 C207.23937445 84.41545576 210.09749629 87.27170906 212.96679115 90.1170845 C215.66535256 92.79428792 218.34871748 95.4858743 221.02145958 98.18884659 C221.99984281 99.17352056 222.98327079 100.15321392 223.97225952 101.12723541 C230.77363171 107.83402715 236.30565229 114.52920549 236.8125 124.4375 C236.21497326 129.72987972 234.99458336 134.3765649 231.53515625 138.51171875 C230.13207946 141.11382946 230.13207946 141.11382946 230.83276367 143.15014648 C231.83896437 145.46743241 232.96113162 147.69519709 234.125 149.9375 C243.34946329 169.04633598 249.48359201 189.48041798 253.375 210.3125 C253.53726074 211.11751953 253.69952148 211.92253906 253.86669922 212.75195312 C259.7413185 242.79799353 258.64879779 277.44345352 252.375 307.3125 C252.16601074 308.32779785 251.95702148 309.3430957 251.74169922 310.38916016 C242.93272896 351.84740747 223.87378029 390.13202772 196.375 422.3125 C195.73820312 423.06144531 195.10140625 423.81039063 194.4453125 424.58203125 C182.62797532 438.07770621 169.88948412 450.74808025 155.375 461.3125 C154.22505169 462.16899066 153.07531411 463.02576433 151.92578125 463.8828125 C143.73565742 469.92284209 135.23120382 475.30617614 126.375 480.3125 C125.66778809 480.7146875 124.96057617 481.116875 124.23193359 481.53125 C98.02919713 496.28361537 69.08869203 505.81885806 39.375 510.3125 C38.25254883 510.48910156 37.13009766 510.66570312 35.97363281 510.84765625 C24.36052257 512.5045586 12.84320055 512.71123513 1.125 512.6875 C-0.39302216 512.68668427 -0.39302216 512.68668427 -1.94171143 512.68585205 C-18.47030572 512.64511956 -34.40413999 511.74174222 -50.625 508.3125 C-51.66688477 508.09287598 -52.70876953 507.87325195 -53.78222656 507.64697266 C-100.07549311 497.54935215 -142.48913721 475.19021242 -176.625 442.3125 C-177.28435547 441.68037598 -177.94371094 441.04825195 -178.62304688 440.39697266 C-188.11130305 431.25252521 -196.8512044 421.95515991 -204.625 411.3125 C-205.48306152 410.16144983 -206.34113451 409.01040823 -207.19921875 407.859375 C-213.23736829 399.66819386 -218.59595521 391.15445895 -223.625 382.3125 C-223.98948242 381.68069824 -224.35396484 381.04889648 -224.72949219 380.39794922 C-239.66085402 354.31089649 -249.13420268 324.97749753 -253.625 295.3125 C-253.80232666 294.19367432 -253.97965332 293.07484863 -254.16235352 291.92211914 C-255.84376341 280.20014053 -255.98234341 268.57751024 -255.9375 256.75 C-255.93426727 255.21939438 -255.93426727 255.21939438 -255.93096924 253.65786743 C-255.88133352 239.03039476 -255.63419712 224.67986162 -252.625 210.3125 C-252.42632324 209.33764648 -252.22764648 208.36279297 -252.02294922 207.35839844 C-241.90232806 158.9765226 -219.9858123 114.98821731 -185.625 79.3125 C-184.99287598 78.65314453 -184.36075195 77.99378906 -183.70947266 77.31445312 C-174.56502521 67.82619695 -165.26765991 59.0862956 -154.625 51.3125 C-153.47394983 50.45443848 -152.32290823 49.59636549 -151.171875 48.73828125 C-142.98224019 42.70072604 -134.47961724 37.31792698 -125.625 32.3125 C-124.91778809 31.9103125 -124.21057617 31.508125 -123.48193359 31.09375 C-100.34654164 18.0683259 -75.17537591 9.31948539 -49.1875 4 C-48.46860596 3.85264404 -47.74971191 3.70528809 -47.0090332 3.5534668 C-31.36274391 0.57960912 -15.88931954 -0.06050362 0 0 Z " fill="#374266" transform="translate(255.625,-0.3125)"/>
<path d="M0 0 C1.43650154 -0.01058945 1.43650154 -0.01058945 2.90202332 -0.02139282 C43.2823093 -0.25089459 43.2823093 -0.25089459 59.6484375 3.203125 C60.64987793 3.41243652 61.65131836 3.62174805 62.68310547 3.83740234 C76.58930644 6.82500489 90.17093494 10.67314202 103.6484375 15.203125 C102.25796618 18.3740089 100.65341734 20.38770442 98.12890625 22.7421875 C97.08959961 23.73798828 97.08959961 23.73798828 96.02929688 24.75390625 C94.58492934 26.11981749 93.13453186 27.4793849 91.67773438 28.83203125 C85.64612412 34.64603484 80.64068604 41.18862055 80.1484375 49.828125 C80.27613127 57.9047559 84.06987086 63.18911869 89.59960938 68.59375 C90.33759766 69.28984375 91.07558594 69.9859375 91.8359375 70.703125 C92.58552734 71.43015625 93.33511719 72.1571875 94.10742188 72.90625 C95.94351321 74.68386709 97.7902417 76.4486766 99.6484375 78.203125 C96.35112301 79.30222983 95.36062838 79.07986999 92.08203125 78.2890625 C68.29859323 73.17999576 43.17173726 79.79705375 22.9375 92.62109375 C0.26053118 108.29374285 -14.81101037 130.22032309 -20.3515625 157.203125 C-21.37073367 162.93766145 -21.54326244 168.52222715 -21.5390625 174.328125 C-21.5400293 175.71004028 -21.5400293 175.71004028 -21.54101562 177.11987305 C-21.48562227 184.31408475 -20.81795099 191.1461304 -19.3515625 198.203125 C-23.40444776 194.84009255 -27.11739848 191.41563683 -30.7265625 187.578125 C-35.99956101 182.27831463 -41.23578614 179.17161104 -48.7890625 178.640625 C-60.21962073 179.51799617 -67.78632297 187.85108811 -75.36694336 195.56665039 C-77.16071445 197.38722692 -78.97966531 199.17951876 -80.80273438 200.97070312 C-91.57053775 211.62007067 -91.57053775 211.62007067 -95.9140625 225.765625 C-94.99687532 236.25014999 -88.64122062 242.63283502 -81.44580078 249.72412109 C-80.429277 250.74415189 -79.41383363 251.76526034 -78.39938354 252.78735352 C-75.65861309 255.54229447 -72.90255694 258.28144474 -70.14295053 261.01750135 C-67.24952789 263.89072575 -64.36920057 266.77702634 -61.48703003 269.66152954 C-56.64853148 274.49997463 -51.8003113 279.32850209 -46.94580078 284.15087891 C-41.33975792 289.71999239 -35.74793824 295.30307289 -30.16381657 300.89416063 C-24.78034364 306.28394495 -19.38837383 311.66514493 -13.99200058 317.04201126 C-11.70015251 319.32570183 -9.41104104 321.61208419 -7.12405777 323.90064621 C-4.43056072 326.59502412 -1.72960811 329.28170417 0.97721481 331.96269226 C1.96739302 332.94572802 2.95506904 333.93129177 3.93999481 334.91959 C5.28824972 336.27157874 6.64670254 337.61337453 8.00558472 338.9546814 C8.76179045 339.70715841 9.51799618 340.45963543 10.29711723 341.23491478 C15.90885048 345.93230581 20.65954119 346.69916064 27.75390625 346.48046875 C39.39484883 345.36507479 47.68107711 334.3570923 55.48657227 326.55029297 C56.97069942 325.06837763 58.4626929 323.59468688 59.95507812 322.12109375 C60.91194645 321.16715603 61.86834385 320.21274565 62.82421875 319.2578125 C63.67927002 318.40687012 64.53432129 317.55592773 65.4152832 316.67919922 C71.18855446 310.27791824 72.11701048 304.62459185 71.96484375 296.21484375 C70.9050274 286.12696221 60.55715196 278.83872776 53.6484375 272.203125 C56.89781609 271.1199988 58.92920939 271.45699215 62.2578125 271.92773438 C77.65861451 273.70184637 94.85427117 273.21240254 109.3984375 267.453125 C112.7824455 266.15158346 113.42932507 265.98829998 116.6484375 267.203125 C118.23040771 268.42433167 118.23040771 268.42433167 119.76464844 269.97875977 C120.34494812 270.55928604 120.9252478 271.13981232 121.52313232 271.7379303 C122.13682678 272.36710861 122.75052124 272.99628693 123.3828125 273.64453125 C124.02083801 274.28680161 124.65886353 274.92907196 125.31622314 275.59080505 C127.35077868 277.64214226 129.37465129 279.70366773 131.3984375 281.765625 C132.77665241 283.15888734 134.15555075 284.55147398 135.53515625 285.94335938 C138.91422796 289.35549365 142.28375614 292.77680207 145.6484375 296.203125 C134.25455539 320.39883616 96.40509893 337.57216234 72.6484375 346.203125 C63.80401191 349.29538432 54.85344481 351.48238997 45.6484375 353.203125 C44.93896973 353.34137695 44.22950195 353.47962891 43.49853516 353.62207031 C7.30370793 360.52597062 -29.19554226 354.8870011 -62.3515625 339.203125 C-63.52066162 338.65446777 -63.52066162 338.65446777 -64.71337891 338.09472656 C-96.48464905 322.9369519 -96.48464905 322.9369519 -101.3515625 313.203125 C-100.2171875 312.914375 -99.0828125 312.625625 -97.9140625 312.328125 C-96.7384375 311.956875 -95.5628125 311.585625 -94.3515625 311.203125 C-90.66248695 303.8249739 -96.90076628 291.54104662 -99.33984375 284.15234375 C-99.84491589 282.6055086 -100.34956266 281.0585345 -100.85380554 279.51142883 C-101.90792695 276.28453139 -102.96867374 273.05990604 -104.03393555 269.83666992 C-105.39658636 265.71106447 -106.74004498 261.57949287 -108.07836628 257.44594097 C-109.11391465 254.25608989 -110.16070929 251.07001588 -111.21080589 247.88492775 C-111.71090819 246.36275379 -112.20724939 244.83933866 -112.69970131 243.31467247 C-113.38890231 241.18582383 -114.09340293 239.06264319 -114.80200195 236.94018555 C-115.39704277 235.12891426 -115.39704277 235.12891426 -116.00410461 233.28105164 C-117.39904667 230.09465943 -118.60671138 228.32128219 -121.3515625 226.203125 C-125.0500629 226.35106502 -126.70961823 226.56118073 -129.3515625 229.203125 C-129.00321774 234.61935326 -127.84641138 239.34360028 -126.12670898 244.50537109 C-125.90223083 245.18607666 -125.67775269 245.86678223 -125.44647217 246.56811523 C-124.71200955 248.78992225 -123.9673242 251.00815753 -123.22265625 253.2265625 C-122.70768868 254.77951239 -122.19346394 256.33270878 -121.6799469 257.88613892 C-120.33326771 261.954613 -118.97828397 266.02026777 -117.62097168 270.08520508 C-115.44313169 276.61137505 -113.2768855 283.14139342 -111.11281013 289.67213821 C-110.35576212 291.95214994 -109.59446743 294.23071078 -108.83262634 296.50912476 C-108.37064208 297.89845998 -107.90876771 299.28783174 -107.44702148 300.67724609 C-107.04144516 301.89221771 -106.63586884 303.10718933 -106.21800232 304.35897827 C-105.3515625 307.203125 -105.3515625 307.203125 -105.3515625 309.203125 C-125.56170635 300.43782666 -142.88605524 266.88364771 -150.64111328 247.27075195 C-152.28624965 242.94039182 -153.82680181 238.57698978 -155.3515625 234.203125 C-155.83978559 232.86716624 -156.32806206 231.53122699 -156.81640625 230.1953125 C-170.98860807 188.92792847 -166.47731318 140.64813714 -147.6015625 101.65234375 C-125.43019201 57.33797909 -88.08445019 24.12514037 -41.10253906 8.07568359 C-32.08085718 5.21417392 -22.70490258 2.87582829 -13.3125 1.63671875 C-2.20710013 0.01046626 -2.20710013 0.01046626 0 0 Z " fill="#495B93" transform="translate(242.3515625,-0.203125)"/>
<path d="M0 0 C0.85335937 -0.01933594 1.70671875 -0.03867187 2.5859375 -0.05859375 C10.89876444 1.29838443 16.59650856 5.67052588 22.3762207 11.52587891 C23.45120064 12.58530701 23.45120064 12.58530701 24.54789734 13.6661377 C26.89498112 15.98629015 29.22337719 18.32418148 31.55078125 20.6640625 C33.18677858 22.29414549 34.82344215 23.92356007 36.46073914 25.55233765 C39.88231077 28.96205295 43.29446853 32.38085581 46.70043945 35.80615234 C51.05404647 40.18264044 55.4319981 44.53381022 59.81757832 48.87822914 C63.20071172 52.23572066 66.5695779 55.60724841 69.93446922 58.98301315 C71.54259116 60.59261643 73.15527394 62.19767703 74.77266884 63.79796219 C77.03681842 66.04202878 79.28077535 68.30459097 81.52075195 70.57275391 C82.1841861 71.22247162 82.84762024 71.87218933 83.53115845 72.54159546 C89.17363046 78.32600338 92.58416879 84.9085757 93.125 93.0625 C92.57154071 102.63902285 85.9972064 108.90534497 79.625 115.4375 C78.90666992 116.17629395 78.18833984 116.91508789 77.44824219 117.67626953 C74.95411479 120.23116806 72.44827223 122.77396063 69.9375 125.3125 C69.11757568 126.14563721 68.29765137 126.97877441 67.45288086 127.8371582 C59.74903142 135.55040353 53.59075621 140.49745655 42.41796875 140.8984375 C33.56873068 139.43800381 28.1098441 133.42577398 22.125 127.1875 C21.30257812 126.34703125 20.48015625 125.5065625 19.6328125 124.640625 C17.62074675 122.58176703 15.61867828 120.51414185 13.625 118.4375 C13.8557019 119.65614746 13.8557019 119.65614746 14.09106445 120.89941406 C18.96771318 147.50580299 14.17526013 173.94235264 -0.81152344 196.57226562 C-15.83631328 218.12348832 -39.17887069 233.92434979 -65.09375 238.9765625 C-77.90228005 240.67030525 -91.59168912 240.1078167 -104.375 238.4375 C-103.8809668 238.90534912 -103.38693359 239.37319824 -102.87792969 239.85522461 C-100.61342949 242.01478844 -98.36935187 244.1945118 -96.125 246.375 C-95.34769531 247.11041016 -94.57039062 247.84582031 -93.76953125 248.60351562 C-87.69834965 254.54497113 -83.47437779 260.32618918 -82.875 269 C-83.42402318 278.61622426 -89.97302299 284.87482709 -96.375 291.4375 C-97.09333008 292.17629395 -97.81166016 292.91508789 -98.55175781 293.67626953 C-101.04588521 296.23116806 -103.55172777 298.77396063 -106.0625 301.3125 C-106.88242432 302.14563721 -107.70234863 302.97877441 -108.54711914 303.8371582 C-116.25096858 311.55040353 -122.40924379 316.49745655 -133.58203125 316.8984375 C-141.43771743 315.60197461 -146.78881637 310.60939474 -152.2121582 305.13378906 C-152.9497789 304.40478394 -153.6873996 303.67577881 -154.44737244 302.92468262 C-156.86708333 300.52755523 -159.27188562 298.11610452 -161.67578125 295.703125 C-163.36058865 294.02355586 -165.0459148 292.34450693 -166.73173523 290.66595459 C-170.25599053 287.15208906 -173.77268571 283.63086578 -177.28442383 280.10449219 C-181.77941743 275.592299 -186.2944579 271.1007899 -190.81559467 266.61481094 C-194.2980522 263.15433774 -197.76871427 259.68222138 -201.23604393 256.20659637 C-202.89597561 254.54584604 -204.55974558 252.88892272 -206.22744179 251.23596954 C-208.55879857 248.92207901 -210.87355848 246.59273493 -213.18481445 244.25878906 C-213.87211639 243.58317932 -214.55941833 242.90756958 -215.26754761 242.21148682 C-220.31208421 237.06595419 -223.75672895 231.54314417 -223.875 224.0625 C-223.10062347 212.38352988 -214.44342718 204.72184758 -206.58422852 196.99487305 C-204.69124561 195.12869257 -202.82648207 193.23727813 -200.96289062 191.34179688 C-186.18126939 176.51556741 -186.18126939 176.51556741 -175.8125 175.875 C-166.57776995 176.49085026 -160.40397534 181.6972876 -154.3125 188.1875 C-153.63767578 188.88488281 -152.96285156 189.58226562 -152.26757812 190.30078125 C-150.62456487 192.00205739 -148.99449979 193.71387807 -147.375 195.4375 C-147.52880127 194.73222168 -147.68260254 194.02694336 -147.84106445 193.30029297 C-153.274086 167.34997604 -147.4043059 140.7185943 -133.375 118.4375 C-118.20376497 97.03074819 -97.53155841 83.02675761 -72.375 76.4375 C-71.47910156 76.19128906 -70.58320313 75.94507812 -69.66015625 75.69140625 C-56.49754082 72.67627317 -41.48473237 73.58144047 -28.375 76.4375 C-28.84397705 75.99470703 -29.3129541 75.55191406 -29.79614258 75.09570312 C-31.94002999 73.0565832 -34.06362999 70.99745302 -36.1875 68.9375 C-36.92548828 68.24140625 -37.66347656 67.5453125 -38.42382812 66.828125 C-43.95356664 61.42349369 -47.74730623 56.1391309 -47.875 48.0625 C-47.04472799 35.90846859 -37.73830728 28.05288563 -29.56494141 20.03051758 C-27.49595834 17.99602571 -25.45225082 15.93839592 -23.41015625 13.87695312 C-22.08997242 12.56366433 -20.76840422 11.2517654 -19.4453125 9.94140625 C-18.84091339 9.33204727 -18.23651428 8.72268829 -17.61380005 8.09486389 C-12.48011476 3.10039943 -7.40660996 0.01112104 0 0 Z " fill="#EC8B3F" transform="translate(369.375,1.5625)"/>
<path d="M0 0 C5.98507751 4.96364679 11.59691446 10.27884336 17.13500977 15.72998047 C18.16918507 16.74252575 19.20957929 17.7487584 20.25610352 18.74853516 C27.55751682 25.72851698 33.86541027 32.50157594 34.4375 43.125 C33.83997326 48.41737972 32.61958336 53.0640649 29.16015625 57.19921875 C27.75707946 59.80132946 27.75707946 59.80132946 28.45776367 61.83764648 C29.46396437 64.15493241 30.58613162 66.38269709 31.75 68.625 C40.97446329 87.73383598 47.10859201 108.16791798 51 129 C51.16226074 129.80501953 51.32452148 130.61003906 51.49169922 131.43945312 C57.3663185 161.48549353 56.27379779 196.13095352 50 226 C49.68651611 227.52294678 49.68651611 227.52294678 49.36669922 229.07666016 C43.71149785 255.69211351 33.79289166 281.52957829 20 305 C13.5674881 299.72040843 7.79151525 293.84991116 1.97509766 287.9140625 C0.8756927 286.79633991 -0.22403233 285.67893206 -1.3240509 284.56181335 C-3.07566089 282.78279742 -4.82700356 281.00352412 -6.57732749 279.22324276 C-10.90720433 274.81926682 -15.2465601 270.4247986 -19.59170532 266.03588867 C-20.22392702 265.39727496 -20.85614873 264.75866125 -21.50752866 264.10069561 C-24.11147231 261.47076831 -26.71571664 258.84113891 -29.32005954 256.21160698 C-36.70409397 248.75528277 -44.07864126 241.29007798 -51.42675781 233.79833984 C-57.27635223 227.83454138 -63.14508421 221.890355 -69.03717196 215.96852493 C-72.15129692 212.83720472 -75.25479597 209.69676958 -78.33524704 206.5322876 C-81.22897336 203.56004845 -84.14735345 200.61447607 -87.08672142 197.68738747 C-88.16019748 196.60928767 -89.22426148 195.52172092 -90.27793694 194.42426109 C-95.53647629 188.48364229 -95.53647629 188.48364229 -102.59141922 185.80488586 C-104.92318934 186.30119753 -106.84512785 186.9961813 -109 188 C-110.50433594 188.40412109 -110.50433594 188.40412109 -112.0390625 188.81640625 C-113.76852284 189.31538952 -115.49768823 189.81539614 -117.2265625 190.31640625 C-124.42311405 192.09020417 -131.44733593 192.15236284 -138.8125 192.125 C-139.84181641 192.12886719 -140.87113281 192.13273438 -141.93164062 192.13671875 C-148.34776679 192.12860221 -154.63071915 191.77615942 -161 191 C-160.56131592 191.42297363 -160.12263184 191.84594727 -159.6706543 192.28173828 C-157.66824444 194.22139908 -155.6778811 196.17300091 -153.6875 198.125 C-152.99720703 198.79015625 -152.30691406 199.4553125 -151.59570312 200.140625 C-147.05941771 204.61116715 -143.48191726 208.41396864 -142.6015625 214.96484375 C-142.72627589 230.78265808 -152.53014474 238.7171274 -163.08007812 249.26538086 C-164.63441925 250.82193265 -166.18054678 252.3863559 -167.7265625 253.95117188 C-168.7260731 254.95361321 -169.72605643 255.95558347 -170.7265625 256.95703125 C-171.61939941 257.85397705 -172.51223633 258.75092285 -173.43212891 259.67504883 C-178.91428137 264.63859113 -183.49417844 266.13063295 -190.75 266.375 C-191.73484375 266.42398437 -192.7196875 266.47296875 -193.734375 266.5234375 C-201.02429862 265.35495692 -206.4810026 259.95839289 -211.46875 254.82421875 C-212.31741638 253.9691851 -212.31741638 253.9691851 -213.18322754 253.09687805 C-214.96274932 251.30075994 -216.73146432 249.49442961 -218.5 247.6875 C-219.71544192 246.4569866 -220.93158204 245.22716244 -222.1484375 243.99804688 C-225.10707638 241.006592 -228.05608134 238.00593942 -231 235 C-230.34 234.67 -229.68 234.34 -229 234 C-227.66666667 234.66666667 -226.33333333 235.33333333 -225 236 C-218.14340354 237.00283554 -212.65690465 235.96420152 -207 232 C-203.45511818 229.21852906 -200.22297985 226.14184581 -197 223 C-195.94039063 221.97108643 -195.94039063 221.97108643 -194.859375 220.92138672 C-192.4385022 218.56113594 -190.02962765 216.1892952 -187.625 213.8125 C-186.83947754 213.04019043 -186.05395508 212.26788086 -185.24462891 211.47216797 C-178.95706544 205.19272623 -173.16437421 199.08461624 -172.5625 189.8125 C-172.93527602 179.86424268 -179.41470221 172.87212142 -186.3125 166.375 C-187.05306641 165.65699219 -187.79363281 164.93898437 -188.55664062 164.19921875 C-190.36005688 162.45397721 -192.17408789 160.72163844 -194 159 C-190.90059843 157.96686614 -189.36010074 158.21197214 -186.22607422 158.72021484 C-171.44231402 160.5783185 -156.091814 159.87183209 -142 155 C-140.28296875 154.42185547 -140.28296875 154.42185547 -138.53125 153.83203125 C-115.04212235 145.35289522 -95.10854297 128.85977836 -84.01269531 106.27758789 C-73.73246081 84.24407099 -71.71879856 61.77595802 -76 38 C-71.95941618 41.30593222 -68.23605691 44.75433987 -64.62158203 48.51367188 C-58.32756467 55.01860683 -53.36281858 59.98774853 -44 60.5 C-34.01016464 59.99746255 -27.85144264 53.67896709 -21 47 C-20.29359375 46.31405762 -19.5871875 45.62811523 -18.859375 44.92138672 C-16.4385022 42.56113594 -14.02962765 40.1892952 -11.625 37.8125 C-10.83947754 37.04019043 -10.05395508 36.26788086 -9.24462891 35.47216797 C-2.95296785 29.18863392 2.94100206 23.06975265 3.3125 13.75 C3.22084203 8.79213697 1.76551042 4.58440299 0 0 Z " fill="#B45D14" transform="translate(458,81)"/>
<path d="M0 0 C1.53218194 -0.00350831 3.0643602 -0.00917486 4.5965271 -0.01681519 C8.72682663 -0.03096985 12.85645292 -0.01409485 16.9866879 0.00946999 C21.32615888 0.02969721 25.66560512 0.02369335 30.00511169 0.0213623 C37.28883862 0.02141574 44.57230498 0.04109389 51.85595703 0.07324219 C60.25678031 0.11014298 68.65726279 0.11891435 77.05815655 0.11194468 C85.16707712 0.10562301 93.27588182 0.11642381 101.38477898 0.13591003 C104.82352294 0.14404889 108.26220739 0.1468001 111.70096016 0.1452179 C115.75508377 0.14433403 119.80888738 0.15868884 123.86292648 0.18444443 C125.34388489 0.19155965 126.82487745 0.19371246 128.30584908 0.19032669 C142.01995401 0.16497028 151.25649841 1.94051972 161.37280273 11.36132812 C169.21887315 19.49486233 171.91592683 28.27797114 171.81030273 39.36523438 C171.74656759 42.119796 171.63541951 44.86289892 171.49780273 47.61523438 C172.86545776 47.58381348 172.86545776 47.58381348 174.26074219 47.55175781 C177.69574413 47.48293145 181.12999662 47.43312342 184.56542969 47.39550781 C186.04243651 47.3755895 187.51936657 47.3484443 188.99609375 47.31347656 C201.41587195 47.02709307 211.6420559 48.39652458 221.49389648 56.62695312 C227.61511819 62.70044601 232.56813851 70.69342007 232.83837891 79.44897461 C232.83790918 81.27399472 232.82127335 83.09906287 232.79077148 84.92382812 C232.78652664 85.89054947 232.7822818 86.85727081 232.77790833 87.85328674 C232.76120795 90.92006087 232.72357172 93.98616117 232.68530273 97.05273438 C232.67024473 99.14061546 232.65655828 101.22850692 232.64428711 103.31640625 C232.61133272 108.41627253 232.55961024 113.51563947 232.49780273 118.61523438 C225.15915013 122.55771535 217.71509249 125.50868209 209.81030273 128.11523438 C208.0407019 128.69942139 208.0407019 128.69942139 206.23535156 129.29541016 C198.78588315 131.69536648 191.33010196 133.8115027 183.68530273 135.49023438 C182.87810791 135.66876953 182.07091309 135.84730469 181.23925781 136.03125 C178.3334906 136.62568211 175.42434684 137.1318283 172.49780273 137.61523438 C171.37287415 137.80105576 171.37287415 137.80105576 170.22521973 137.9906311 C156.06181894 140.27201065 142.20821242 141.14638656 127.87280273 141.05273438 C126.87577332 141.04969299 125.8787439 141.04665161 124.85150146 141.04351807 C108.44982365 140.96989164 92.59170735 140.01763703 76.49780273 136.61523438 C75.45591797 136.39561035 74.4140332 136.17598633 73.34057617 135.94970703 C21.8311821 124.71432978 -21.31110749 98.57178081 -58.50219727 61.80273438 C-59.232854 61.08520996 -59.96351074 60.36768555 -60.71630859 59.62841797 C-61.40877686 58.93699707 -62.10124512 58.24557617 -62.81469727 57.53320312 C-63.42958008 56.9224292 -64.04446289 56.31165527 -64.67797852 55.68237305 C-66.87251657 53.19560194 -68.66246252 50.3748365 -70.50219727 47.61523438 C-61.59219727 47.61523438 -52.68219727 47.61523438 -43.50219727 47.61523438 C-43.56407227 45.18148437 -43.62594727 42.74773437 -43.68969727 40.24023438 C-43.77213091 28.41877236 -40.82827457 19.51010372 -32.72094727 10.67382812 C-23.08410062 1.53067239 -12.80565584 -0.12448085 0 0 Z " fill="#EB8B40" transform="translate(128.502197265625,371.384765625)"/>
<path d="M0 0 C1.5324781 -0.00322745 3.06495255 -0.00905678 4.59741211 -0.01725769 C8.71945319 -0.03166659 12.84050364 -0.00901316 16.96242499 0.02160144 C21.2965358 0.04816565 25.63062233 0.04266637 29.96479797 0.04151917 C37.23662668 0.04431883 44.50807724 0.07023402 51.77978516 0.11132812 C60.16588761 0.15854723 68.55157716 0.17431997 76.93780297 0.17212147 C85.9017037 0.17008958 94.86544712 0.19093627 103.82930017 0.21846128 C106.39788625 0.22482975 108.96644666 0.22698128 111.5350399 0.22817802 C115.58099894 0.23120906 119.62661647 0.24966577 123.67246246 0.27967644 C125.15019194 0.28837847 126.62796074 0.29214247 128.1057148 0.29039383 C141.80452664 0.28032446 151.04058954 2.06442102 161.14575195 11.47485352 C167.82255284 18.39627858 171.49009992 26.66012608 171.83325195 36.29125977 C171.35242614 47.15532417 167.17524482 55.74090936 159.6105957 63.41235352 C152.2253312 70.15834683 144.77920687 72.83359628 134.8278656 72.88265991 C132.87465645 72.89556061 132.87465645 72.89556061 130.88198853 72.90872192 C129.44574015 72.91315662 128.00949134 72.91745503 126.57324219 72.92163086 C125.05504674 72.92953791 123.53685315 72.93780723 122.0186615 72.94641113 C117.03890766 72.97256613 112.0591457 72.98793435 107.0793457 73.00219727 C105.36064207 73.00756002 103.64193848 73.01293754 101.92323494 73.01832962 C94.76957012 73.03995063 87.61590749 73.0586842 80.46221828 73.06995201 C70.23431345 73.08617171 60.00678961 73.11931015 49.77902836 73.17635286 C42.57455339 73.2151539 35.37017988 73.23459681 28.16560322 73.23987257 C23.86931198 73.24351273 19.57342772 73.25539047 15.27725029 73.28797531 C11.22971427 73.31823491 7.18282767 73.32430487 3.13520241 73.31259155 C1.65827375 73.31237229 0.18131337 73.32055406 -1.29550934 73.33824539 C-14.5729722 73.48850678 -24.86561294 70.54894089 -34.59643555 61.20922852 C-42.79498008 51.67429119 -43.64416961 41.11210693 -42.99438477 29.07836914 C-42.09152551 21.07734014 -37.13284622 13.8616419 -31.19514942 8.60994625 C-21.55971268 1.25926566 -11.72485218 -0.14531626 0 0 Z " fill="#EC8C40" transform="translate(128.729248046875,371.271240234375)"/>
<path d="M0 0 C20.21563704 18.16545776 26.07252722 67.11526589 28 93 C28.37191428 100.43359459 28.38740958 107.87127428 28.375 115.3125 C28.37578552 116.31503815 28.37657104 117.31757629 28.37738037 118.35049438 C28.33793476 160.49309787 28.33793476 160.49309787 22 170 C9.41522392 157.67218256 -3.13785441 145.31308085 -15.65416145 132.91577244 C-21.46646186 127.16019398 -27.28865464 121.41533121 -33.13525391 115.69458008 C-38.23113853 110.70833272 -43.30739046 105.70304885 -48.36101329 100.67396015 C-51.03776306 98.01155272 -53.72333937 95.35967741 -56.43265152 92.7303791 C-58.9831456 90.25460654 -61.50655929 87.75415952 -64.01167679 85.23250771 C-65.37495211 83.87369749 -66.76545018 82.54237176 -68.15655518 81.21206665 C-73.94443271 75.31546955 -73.94443271 75.31546955 -74.10578537 71.49569511 C-73.61023626 69.17886122 -72.92927495 67.17423867 -72 65 C-71.73058594 64.00871094 -71.46117187 63.01742187 -71.18359375 61.99609375 C-70.68529371 60.28726378 -70.18528706 58.57893057 -69.68359375 56.87109375 C-67.97102948 49.6783238 -67.83947285 42.6053882 -67.875 35.25 C-67.87693359 34.28368652 -67.87886719 33.31737305 -67.88085938 32.32177734 C-67.92208438 25.50247401 -68.1993059 18.77730365 -69 12 C-64.91523272 15.38948774 -61.1227411 18.86484313 -57.4375 22.6875 C-52.15145025 27.95581132 -48.61257628 30.12208181 -41.0625 30.375 C-27.01632743 29.94201071 -18.79216467 18.94245401 -9.5 9.5625 C-8.12328125 8.17901367 -8.12328125 8.17901367 -6.71875 6.76757812 C-4.47684945 4.51400101 -2.237334 2.25810925 0 0 Z " fill="#374265" transform="translate(484,140)"/>
<path d="M0 0 C0.33 0 0.66 0 1 0 C1.02578125 0.89460938 1.0515625 1.78921875 1.078125 2.7109375 C1.62384581 14.34471286 3.65568241 22.4549418 11.78515625 31.0234375 C18.53324416 37.04554064 26.5508627 40.24433315 35.58332825 40.26069641 C36.89117783 40.26778122 38.1990274 40.27486603 39.54650879 40.28216553 C40.98388707 40.27987199 42.42126501 40.27736233 43.85864258 40.2746582 C45.38185373 40.27900843 46.9050627 40.28419262 48.42826843 40.29014587 C52.55650969 40.30351546 56.68465927 40.30411669 60.81291795 40.30158257 C64.26449908 40.30051121 67.71606178 40.30540059 71.16763896 40.310188 C79.31465424 40.3212767 87.46162341 40.32172455 95.60864258 40.31567383 C103.99970017 40.30963742 112.39058993 40.32193803 120.78161889 40.3432439 C127.99711828 40.36088802 135.2125644 40.36685672 142.42808455 40.36360615 C146.73252183 40.36179722 151.03683945 40.36439024 155.3412571 40.37832069 C159.39198148 40.39093982 163.44244537 40.38891656 167.49316597 40.37590981 C168.97455688 40.37355312 170.45596636 40.37624596 171.93733597 40.38453293 C185.1287732 40.4529696 194.81060493 38.42505153 204.7578125 29.40625 C208.45195028 25.47078664 210.34872535 21.29570559 212.140625 16.234375 C213 14 213 14 215 11 C215.09988492 15.92547891 215.17194055 20.85035096 215.21972656 25.77661133 C215.239675 27.44761442 215.26684401 29.11854924 215.30175781 30.78930664 C215.57750721 44.33752337 214.5810642 55.54584122 205 66 C197.21573016 73.89416541 189.17010479 77.06164714 178.10243225 77.18081665 C176.94629425 77.19519775 175.79015625 77.20957886 174.59898376 77.22439575 C172.71706078 77.24021194 172.71706078 77.24021194 170.79711914 77.25634766 C169.4511281 77.27081397 168.10514017 77.28557185 166.75915527 77.30059814 C154.47803144 77.43077364 142.19602328 77.49676373 129.91434574 77.54844093 C120.85422041 77.58727399 111.79534532 77.65552673 102.73576838 77.76298869 C96.34482873 77.83620425 89.9542279 77.87433238 83.56288618 77.88746679 C79.75618339 77.89627271 75.95103009 77.92002968 72.14479256 77.98213577 C42.19081026 78.4498444 42.19081026 78.4498444 30 68 C28.63030349 67.06769946 27.2519108 66.14782898 25.859375 65.25 C18.69871377 60.06841599 11.72439327 54.74611248 5 49 C4.25105469 48.36320312 3.50210938 47.72640625 2.73046875 47.0703125 C-3.19364833 41.88292548 -8.78146516 36.35148549 -14.375 30.8125 C-15.55364624 29.6534314 -15.55364624 29.6534314 -16.75610352 28.47094727 C-17.50432373 27.72385498 -18.25254395 26.9767627 -19.0234375 26.20703125 C-19.69294434 25.5416333 -20.36245117 24.87623535 -21.05224609 24.19067383 C-23 22 -23 22 -27 16 C-18.09 16 -9.18 16 0 16 C0 10.72 0 5.44 0 0 Z " fill="#B55D14" transform="translate(85,403)"/>
<path d="M0 0 C1.27302979 -0.00571014 2.54605957 -0.01142029 3.85766602 -0.01730347 C5.2765502 -0.0185489 6.69543449 -0.01967398 8.11431885 -0.02069092 C9.6023979 -0.02531815 11.09047577 -0.03034268 12.57855225 -0.03573608 C16.62829384 -0.04887306 20.67801885 -0.05530781 24.72777843 -0.05974674 C27.25757 -0.06267597 29.78735702 -0.06678054 32.3171463 -0.07125092 C40.23115066 -0.08493057 48.14514463 -0.09459438 56.05915999 -0.09845281 C65.19642702 -0.10293193 74.33354433 -0.12047103 83.47076583 -0.1494534 C90.53156648 -0.17107229 97.59232503 -0.18115723 104.65315843 -0.18249393 C108.87094005 -0.183542 113.08858103 -0.18945004 117.30632782 -0.20731354 C121.27571969 -0.22379737 125.24486526 -0.22594828 129.21427917 -0.21717453 C130.66951914 -0.21640426 132.12477236 -0.22074557 133.57997894 -0.23063278 C135.57020605 -0.24335961 137.56053217 -0.2356811 139.55078125 -0.22705078 C140.66355312 -0.22851734 141.776325 -0.2299839 142.92281723 -0.2314949 C147.16121384 0.27595561 150.54029357 1.75041271 153.67388916 4.67559814 C158.02696803 10.36808589 158.81889591 14.01266824 158.02935791 21.14044189 C155.53601288 26.12713196 152.03584842 29.63719664 147.02935791 32.14044189 C145.02851482 32.24299115 143.02420668 32.27995921 141.02075195 32.28761292 C139.09858604 32.29834587 139.09858604 32.29834587 137.1375885 32.30929565 C135.70925928 32.31213607 134.28092979 32.31484778 132.8526001 32.31744385 C131.3546686 32.32370745 129.85673865 32.33035416 128.35881042 32.33735657 C124.28221514 32.3547768 120.20563159 32.3653213 116.12900829 32.3735621 C113.58246596 32.37871054 111.03592727 32.38478637 108.48938751 32.39107323 C100.52306027 32.41012896 92.55674231 32.42435876 84.59039664 32.4326852 C75.39252566 32.44245726 66.19489535 32.46877425 56.99710917 32.50918609 C49.88960081 32.5393429 42.78216145 32.55415369 35.67459035 32.55746621 C31.42881301 32.55981738 27.18329267 32.56878612 22.93758392 32.59392738 C18.94187664 32.61720541 14.9465956 32.62144261 10.95083809 32.611166 C9.48591507 32.61067044 8.02097109 32.61699685 6.55611229 32.63072205 C4.55278584 32.64843905 2.54927433 32.63895015 0.54589844 32.62818909 C-0.57424778 32.63057744 -1.694394 32.63296579 -2.84848404 32.63542652 C-7.82521913 31.84641862 -10.92276936 29.27327728 -14.28314209 25.64044189 C-17.29684854 21.1756916 -17.71208863 16.4747378 -16.97064209 11.14044189 C-13.09969737 3.6852891 -8.25616737 0.02210035 0 0 Z " fill="#FEE160" transform="translate(121.97064208984375,391.85955810546875)"/>
<path d="M0 0 C3.3833459 1.22991465 5.69896122 3.82434872 8.25136566 6.27760315 C8.86309631 6.85516357 9.47482697 7.432724 10.10509491 8.02778625 C16.48506705 14.07607788 22.77308791 20.22158686 29.05312347 26.37330627 C32.03350378 29.28687066 35.04024193 32.16837191 38.07460785 35.02565002 C41.74441281 38.48171507 45.35950085 41.98713657 48.94235992 45.53318787 C50.31214321 46.87184316 51.69984118 48.19242919 53.10541534 49.49345398 C63.77663978 59.41058441 63.77663978 59.41058441 64.21894073 64.95614624 C63.80691031 69.51593948 62.46846969 73.65964779 60.77097321 77.89076233 C59.73422788 80.52560534 59.00839901 83.23259191 58.26113129 85.9611969 C57.69569419 87.7240302 57.1230381 89.48456806 56.54238129 91.2424469 C56.11892426 92.61723206 56.11892426 92.61723206 55.68691254 94.01979065 C55.25958832 95.32109924 55.25958832 95.32109924 54.82363129 96.6486969 C54.57677582 97.41504456 54.32992035 98.18139221 54.07558441 98.97096252 C53.04238129 100.7424469 53.04238129 100.7424469 51.33300018 101.66891479 C49.04238129 101.7424469 49.04238129 101.7424469 46.39983368 99.72808838 C45.37349546 98.72853634 44.36095337 97.71470883 43.35927582 96.69044495 C42.80262238 96.14094681 42.24596893 95.59144867 41.6724472 95.02529907 C39.82735935 93.19717623 38.00113022 91.35140303 36.17519379 89.50416565 C34.89571346 88.22551405 33.61541774 86.9476779 32.33434296 85.67062378 C29.64481349 82.98395866 26.96430219 80.28869043 24.28993988 77.58692932 C20.880115 74.14324473 17.4508795 70.71972405 14.01470375 67.30235577 C11.36303693 64.66132748 8.72131104 62.01052952 6.08244705 59.35671425 C4.82308646 58.09220639 3.56094076 56.83046547 2.29586411 55.57167625 C-15.91788983 37.41444887 -15.91788983 37.41444887 -16.33261871 25.1799469 C-16.1945705 14.76358191 -11.2307785 8.47441361 -4.14121246 1.26197815 C-1.95761871 -0.2575531 -1.95761871 -0.2575531 0 0 Z " fill="#EB8A3F" transform="translate(442.9576187133789,247.25755310058594)"/>
<path d="M0 0 C3.42165874 1.19014217 3.98946191 1.96799205 5.875 5 C6.80622045 7.35167378 7.64024117 9.65944912 8.41870117 12.06005859 C8.65322495 12.76301559 8.88774872 13.4659726 9.12937927 14.19023132 C9.8999664 16.50715586 10.65935933 18.82756607 11.41796875 21.1484375 C11.95136011 22.76515911 12.48516448 24.38174451 13.0193634 25.99819946 C14.13635231 29.38421251 15.24769744 32.77201363 16.35522461 36.16113281 C17.77306865 40.49802567 19.20573501 44.82985085 20.64280224 49.16040611 C21.74810389 52.4972417 22.84499919 55.83679473 23.9394474 59.17720413 C24.46423388 60.77522763 24.99172409 62.3723659 25.52199364 63.96857834 C26.26311306 66.20338601 26.99269977 68.44164784 27.71948242 70.68115234 C27.93918701 71.33590042 28.1588916 71.9906485 28.38525391 72.66523743 C29.90232467 77.39984508 30.89815337 81.71295128 28.8125 86.375 C26.875 88 26.875 88 23.375 88.4375 C19.875 88 19.875 88 18.32096863 86.92501831 C16.22621216 84.13626863 15.29684229 81.04360807 14.23950195 77.76220703 C13.99522461 77.02852905 13.75094727 76.29485107 13.49926758 75.53894043 C12.69487149 73.11478808 11.90375858 70.68653591 11.11328125 68.2578125 C10.55764235 66.56994867 10.00141554 64.88227826 9.44462585 63.1947937 C8.27977612 59.65761904 7.12135327 56.11842283 5.9675293 52.57763672 C4.48913655 48.04221812 2.99609817 43.51178705 1.49834919 38.98272896 C0.34757586 35.49810452 -0.79595724 32.01113793 -1.9372654 28.52340317 C-2.48498585 26.85218616 -3.03481596 25.18165903 -3.58679771 23.51184464 C-4.35770373 21.17572688 -5.11894561 18.83667487 -5.87768555 16.49658203 C-6.10674088 15.80861542 -6.3357962 15.1206488 -6.5717926 14.41183472 C-7.71105783 10.86155078 -8.59295774 7.73294871 -8.125 4 C-5.42975318 0.98766532 -4.08177774 0 0 0 Z " fill="#FADE62" transform="translate(120.125,225)"/>
<path d="M0 0 C6.23247682 0.17045448 11.9948674 2.4039763 17.85766602 4.35424805 C19.13276463 4.76926253 20.40819812 5.18324937 21.6839447 5.5962677 C25.03364138 6.68381572 28.37855652 7.78539618 31.72265625 8.89001465 C35.07797463 9.99552068 38.43773133 11.08735632 41.79711914 12.18041992 C46.89156694 13.83950685 51.98180779 15.51072009 57.0690918 17.19165039 C60.97498314 18.482043 64.8840566 19.75784425 68.80639648 20.99731445 C69.5161412 21.22437576 70.22588593 21.45143707 70.95713806 21.68537903 C72.69483384 22.24009826 74.43515931 22.78656329 76.17578125 23.33203125 C78.71726385 24.38193988 80.05773233 25.18431352 81.69750977 27.3737793 C82.23063141 30.95331033 82.10408517 32.71309426 80.19750977 35.8112793 C76.59513174 38.06276556 73.66992023 37.23466239 69.69750977 36.3737793 C65.33600491 35.09608908 61.05218209 33.61587575 56.76000977 32.1237793 C45.57153705 28.30361398 45.57153705 28.30361398 34.26000977 24.8737793 C27.08164414 22.80997601 19.93437407 20.64743741 12.80783081 18.41137695 C10.92094887 17.82249561 9.03007767 17.24644564 7.13916016 16.6706543 C5.97634521 16.30327148 4.81353027 15.93588867 3.61547852 15.55737305 C2.57157959 15.23309326 1.52768066 14.90881348 0.45214844 14.57470703 C-2.5915717 13.24774972 -4.26990332 11.99243642 -6.30249023 9.3737793 C-6.11478852 3.93042965 -5.92390075 0.67047328 0 0 Z " fill="#FADE61" transform="translate(26.302490234375,316.626220703125)"/>
<path d="M0 0 C2.37393892 1.68064797 4.12305656 3.1626127 6.11889648 5.21313477 C6.68562576 5.76759781 7.25235504 6.32206085 7.83625793 6.89332581 C9.69916697 8.72550064 11.53538263 10.58201092 13.37109375 12.44140625 C14.66044187 13.7260373 15.95082746 15.00962785 17.24220276 16.29222107 C19.94245632 18.9821626 22.62966432 21.68433677 25.30834961 24.39575195 C28.74042028 27.86770558 32.20296397 31.30728142 35.67590237 34.73829746 C38.34548471 37.38256616 40.99814604 40.0433054 43.64601326 42.7093029 C44.91631605 43.98427015 46.19182535 45.254072 47.47259331 46.51852608 C49.26152372 48.28964482 51.02642765 50.08172025 52.78686523 51.88110352 C53.31821075 52.39827942 53.84955627 52.91545532 54.39700317 53.44830322 C57.12019702 56.28397238 57.97908473 57.79942903 58.39222717 61.76133728 C58 65 58 65 56.9375 66.9375 C53.82959295 68.64183612 51.4921966 68.36416155 48 68 C45.62606108 66.31935203 43.87694344 64.8373873 41.88110352 62.78686523 C41.0310096 61.95517067 41.0310096 61.95517067 40.16374207 61.10667419 C38.30083303 59.27449936 36.46461737 57.41798908 34.62890625 55.55859375 C33.33955813 54.2739627 32.04917254 52.99037215 30.75779724 51.70777893 C28.05754368 49.0178374 25.37033568 46.31566323 22.69165039 43.60424805 C19.25957972 40.13229442 15.79703603 36.69271858 12.32409763 33.26170254 C9.65451529 30.61743384 7.00185396 27.9566946 4.35398674 25.2906971 C3.08368395 24.01572985 1.80817465 22.745928 0.52740669 21.48147392 C-1.26152372 19.71035518 -3.02642765 17.91827975 -4.78686523 16.11889648 C-5.31821075 15.60172058 -5.84955627 15.08454468 -6.39700317 14.55169678 C-9.12019702 11.71602762 -9.97908473 10.20057097 -10.39222717 6.23866272 C-10 3 -10 3 -8.9375 1.0625 C-5.82959295 -0.64183612 -3.4921966 -0.36416155 0 0 Z " fill="#FDE061" transform="translate(58,251)"/>
<path d="M0 0 C4.94662397 4.10464542 9.50204605 8.43916622 13.984375 13.046875 C16.0423402 15.15869734 16.0423402 15.15869734 19 17 C19.34716481 20.04629299 19.47202057 22.82456033 19.4375 25.875 C19.43210205 26.78741455 19.4267041 27.6998291 19.42114258 28.63989258 C19.25080143 36.73210706 18.3201382 44.67900061 17.1875 52.6875 C17.02241943 53.85587402 16.85733887 55.02424805 16.68725586 56.22802734 C15.6517962 63.02496566 14.19588108 69.48268417 12 76 C7.23052698 76 4.99786664 72.74844139 1.6875 69.5625 C1.01654297 68.97017578 0.34558594 68.37785156 -0.34570312 67.76757812 C-2.26426462 65.91633458 -3.72537733 64.34511425 -5 62 C-5.03599857 58.72832435 -4.13536596 56.04223962 -3 53 C-2.73058594 52.00871094 -2.46117187 51.01742187 -2.18359375 49.99609375 C-1.68529371 48.28726378 -1.18528706 46.57893057 -0.68359375 44.87109375 C1.02897052 37.6783238 1.16052715 30.6053882 1.125 23.25 C1.12306641 22.28368652 1.12113281 21.31737305 1.11914062 20.32177734 C1.07791562 13.50247401 0.8006941 6.77730365 0 0 Z " fill="#4A5A91" transform="translate(415,152)"/>
<path d="M0 0 C8.91 0 17.82 0 27 0 C27 8.91 27 17.82 27 27 C23.317707 25.1588535 21.4465759 23.70361544 18.59375 20.859375 C17.76746094 20.03566406 16.94117187 19.21195312 16.08984375 18.36328125 C15.23519531 17.50089844 14.38054687 16.63851563 13.5 15.75 C12.64535156 14.90308594 11.79070312 14.05617188 10.91015625 13.18359375 C10.08386719 12.35472656 9.25757812 11.52585937 8.40625 10.671875 C7.65666016 9.9200293 6.90707031 9.16818359 6.13476562 8.39355469 C4 6 4 6 0 0 Z " fill="#E78941" transform="translate(58,419)"/>
<path d="M0 0 C26.70827459 -1.55080304 53.96242598 6.58451028 79 15 C77.84826645 17.46800047 76.95216435 19.04783565 75 21 C70.71096329 20.65264844 67.30269367 18.78491146 63.5 16.875 C43.13368955 7.06349278 22.25444358 3.367494 0 1 C0 0.67 0 0.34 0 0 Z " fill="#374368" transform="translate(267,0)"/>
<path d="M0 0 C0.33 0 0.66 0 1 0 C1.06058594 0.95261719 1.12117188 1.90523438 1.18359375 2.88671875 C1.26738281 4.14097656 1.35117188 5.39523437 1.4375 6.6875 C1.51871094 7.92886719 1.59992188 9.17023438 1.68359375 10.44921875 C1.94491317 13.38180337 2.34798379 16.13441617 3 19 C2.34 19 1.68 19 1 19 C1 27.58 1 36.16 1 45 C-1 43 -1 43 -1.20254517 41.12704468 C-1.16923599 39.98787094 -1.16923599 39.98787094 -1.13525391 38.82568359 C-1.11508209 37.96494232 -1.09491028 37.10420105 -1.0741272 36.21737671 C-1.04193085 35.28712677 -1.0097345 34.35687683 -0.9765625 33.3984375 C-0.95153656 32.44683746 -0.92651062 31.49523743 -0.90072632 30.51480103 C-0.818388 27.46784569 -0.72185208 24.42152524 -0.625 21.375 C-0.56677458 19.31252615 -0.50947101 17.25002605 -0.453125 15.1875 C-0.31278856 10.12463317 -0.15971563 5.06229105 0 0 Z " fill="#BB6827" transform="translate(85,403)"/>
</svg>
